<?xml version="1.0" standalone="no"?>
<!DOCTYPE svg PUBLIC "-//W3C//DTD SVG 1.1//EN" "http://www.w3.org/Graphics/SVG/1.1/DTD/svg11.dtd" >
<svg xmlns="http://www.w3.org/2000/svg" width="100%" height="100%">
<metadata>
Created by FontXChange 20110222 at Thu Mar  7 18:11:56 2013
 By Welington Sampaio
Copyright 1989, 2001, 2002 Adobe Systems Incorporated. All rights reserved. ITC Bauhaus is a trademark of International Typeface Corporation registered in the U.S. Patent and Trademark Office and may be registered in certain other jurisdictions.
</metadata>
<defs>
<font id="BauhausStd-Demi" horiz-adv-x="556" >
  <font-face 
    font-family="BauhausStd"
    font-weight="600"
    font-stretch="normal"
    units-per-em="1000"
    panose-1="4 2 7 5 2 11 2 2 12 2"
    ascent="700"
    descent="-300"
    x-height="486"
    cap-height="700"
    bbox="-167 -228 1000 952"
    underline-thickness="50"
    underline-position="-50"
    stemh="140"
    stemv="128"
    unicode-range="U+0020-FB02"
  />
<missing-glyph horiz-adv-x="500" 
d="M0 0v700h500v-700h-500zM250 395l170 255h-340zM280 350l170 -255v510zM80 50h340l-170 255zM50 605v-510l170 255z" />
    <glyph glyph-name="f_i" unicode="fi" horiz-adv-x="500" 
d="M174 0h-128v488c0 110 39 212 177 212h51v-128h-50c-31 0 -50 -12 -50 -49v-37h100v-124h-100v-362zM450 0h-128v486h128v-486zM386 712c43 0 76 -29 76 -81s-33 -81 -76 -81s-76 29 -76 81s33 81 76 81z" />
    <glyph glyph-name="f_l" unicode="fl" horiz-adv-x="500" 
d="M174 0h-128v488c0 110 39 212 177 212h51v-128h-50c-31 0 -50 -12 -50 -49v-37h100v-124h-100v-362zM450 0h-128v700h128v-700z" />
    <glyph glyph-name=".notdef" horiz-adv-x="500" 
d="M0 0v700h500v-700h-500zM250 395l170 255h-340zM280 350l170 -255v510zM80 50h340l-170 255zM50 605v-510l170 255z" />
    <glyph glyph-name="space" unicode=" " horiz-adv-x="278" 
 />
    <glyph glyph-name="exclam" unicode="!" horiz-adv-x="278" 
d="M139 162c49 0 83 -37 83 -83s-34 -83 -83 -83s-83 37 -83 83s34 83 83 83zM58 712h162l-13 -511h-136z" />
    <glyph glyph-name="quotedbl" unicode="&#x22;" horiz-adv-x="333" 
d="M198 429v271h112v-271h-112zM24 429v271h112v-271h-112z" />
    <glyph glyph-name="numbersign" unicode="#" 
d="M309 200h-96l-28 -200h-97l27 200h-87l3 90h97l17 120h-88l3 90h97l28 200h97l-27 -200h96l28 200h97l-27 -200h79l-3 -90h-88l-17 -120h79l-3 -90h-89l-28 -200h-97zM339 410h-96l-17 -120h96z" />
    <glyph glyph-name="dollar" unicode="$" 
d="M236 -32v122h-136v122h176c30 0 50 14 50 39c0 77 -238 133 -238 276c0 94 57 152 148 161v104h88v-104h109v-116h-161c-38 0 -50 -18 -50 -38c0 -65 238 -119 238 -270c0 -89 -48 -156 -136 -174v-122h-88z" />
    <glyph glyph-name="percent" unicode="%" horiz-adv-x="889" 
d="M130 523c0 -44 35 -79 79 -79s79 35 79 79s-35 79 -79 79s-79 -35 -79 -79zM32 523c0 97 74 177 177 177s177 -80 177 -177s-74 -177 -177 -177s-177 80 -177 177zM699 700l-450 -701h-89l453 701h86zM470 177c0 97 74 177 177 177s177 -80 177 -177s-74 -177 -177 -177
s-177 80 -177 177zM568 177c0 -44 35 -79 79 -79s79 35 79 79s-35 79 -79 79s-79 -35 -79 -79z" />
    <glyph glyph-name="ampersand" unicode="&#x26;" horiz-adv-x="778" 
d="M477 169l-193 233c-42 -32 -62 -79 -62 -131c0 -82 64 -147 141 -147c42 0 88 16 114 45zM567 700v-140h-249l230 -275h2c0 61 -11 112 -56 153l97 92c61 -60 103 -132 103 -219c0 -54 -13 -105 -42 -151l130 -160h-173l-41 56c-57 -49 -127 -68 -202 -68
c-169 0 -296 118 -296 288c0 93 49 177 127 226c-26 26 -37 54 -37 91c0 59 46 107 130 107h277z" />
    <glyph glyph-name="quoteright" unicode="&#x2019;" horiz-adv-x="222" 
d="M56 700h129l-57 -228h-99z" />
    <glyph glyph-name="parenleft" unicode="(" horiz-adv-x="444" 
d="M392 -152l-74 -76c-147 114 -222 288 -222 470s75 356 222 470l74 -76c-117 -95 -188 -240 -188 -394s71 -299 188 -394z" />
    <glyph glyph-name="parenright" unicode=")" horiz-adv-x="444" 
d="M52 636l74 76c147 -114 222 -288 222 -470s-75 -356 -222 -470l-74 76c117 95 188 240 188 394s-71 299 -188 394z" />
    <glyph glyph-name="asterisk" unicode="*" horiz-adv-x="500" 
d="M120 384l-51 94l137 43v2l-138 43l57 92l102 -95l2 2l-28 135h99l-28 -135l2 -2l102 95l57 -92l-138 -43v-2l137 -43l-51 -94l-105 96l-2 -2l30 -138h-107l30 138l-2 2z" />
    <glyph glyph-name="plus" unicode="+" horiz-adv-x="600" 
d="M246 297v189h108v-189h188v-108h-188v-189h-108v189h-188v108h188z" />
    <glyph glyph-name="comma" unicode="," horiz-adv-x="278" 
d="M117 -174h-101l58 302h144z" />
    <glyph glyph-name="hyphen" unicode="-" horiz-adv-x="333" 
d="M282 187h-231v112h231v-112z" />
    <glyph glyph-name="period" unicode="." horiz-adv-x="278" 
d="M139 162c49 0 83 -37 83 -83s-34 -83 -83 -83s-83 37 -83 83s34 83 83 83z" />
    <glyph glyph-name="slash" unicode="/" horiz-adv-x="278" 
d="M81 -12h-109l224 724h109z" />
    <glyph glyph-name="zero" unicode="0" 
d="M373 220v260c0 56 -28 92 -95 92s-95 -36 -95 -92v-260c0 -56 28 -92 95 -92s95 36 95 92zM35 220v260c0 130 92 232 243 232s243 -102 243 -232v-260c0 -130 -92 -232 -243 -232s-243 102 -243 232z" />
    <glyph glyph-name="one" unicode="1" 
d="M104 566v134h252v-700h-144v566h-108z" />
    <glyph glyph-name="two" unicode="2" 
d="M518 138v-138h-383c-58 0 -107 20 -107 84c0 48 13 65 98 149l145 144c46 46 81 85 81 127c0 30 -30 70 -84 70s-84 -38 -84 -74c0 -45 25 -83 59 -90l-102 -102c-67 37 -101 113 -101 188c0 124 101 216 228 216s228 -92 228 -216c0 -96 -40 -144 -108 -207l-162 -151
h292z" />
    <glyph glyph-name="three" unicode="3" 
d="M30 0v144h212c56 0 100 19 100 83s-44 83 -100 83h-136v90l204 165v1h-268v134h292c96 0 138 -52 138 -104c0 -92 -90 -125 -148 -179c103 -18 182 -93 182 -202c0 -158 -113 -215 -253 -215h-223z" />
    <glyph glyph-name="four" unicode="4" 
d="M258 700h145l-253 -418h168v196l119 202c7 12 17 29 18 29s1 -15 1 -27v-400h67v-134h-67v-148h-138v148h-209c-49 0 -97 32 -97 96c0 43 21 80 38 108z" />
    <glyph glyph-name="five" unicode="5" 
d="M456 700v-134h-248v-112h88c98 0 216 -76 216 -227s-118 -227 -216 -227h-247v140h191c65 0 114 13 114 90s-49 90 -114 90h-176v380h392z" />
    <glyph glyph-name="six" unicode="6" 
d="M252 700h170l-216 -387c-13 -23 -26 -56 -26 -79c0 -57 42 -98 98 -98s98 41 98 98c0 64 -37 100 -105 104l71 132c110 -27 182 -123 182 -236c0 -142 -101 -246 -246 -246s-246 104 -246 246c0 52 27 113 56 166z" />
    <glyph glyph-name="seven" unicode="7" 
d="M60 560v140h322c64 0 114 -34 114 -82c0 -36 -12 -76 -22 -107l-170 -511h-160l201 560h-285z" />
    <glyph glyph-name="eight" unicode="8" 
d="M524 218c0 -151 -101 -230 -246 -230s-246 79 -246 230c0 73 42 133 107 164c-55 25 -83 79 -83 138c0 124 104 192 224 192c116 0 218 -68 218 -192c0 -59 -26 -113 -81 -138c65 -31 107 -91 107 -164zM180 216c0 -56 42 -98 98 -98s98 44 98 98s-42 98 -98 98
s-98 -42 -98 -98zM276 596c-46 0 -82 -34 -82 -83s36 -83 82 -83s84 34 84 83s-38 83 -84 83z" />
    <glyph glyph-name="nine" unicode="9" 
d="M304 0h-170l216 387c13 23 26 56 26 79c0 57 -42 98 -98 98s-98 -41 -98 -98c0 -64 37 -100 105 -104l-71 -132c-110 27 -182 123 -182 236c0 142 101 246 246 246s246 -104 246 -246c0 -52 -27 -113 -56 -166z" />
    <glyph glyph-name="colon" unicode=":" horiz-adv-x="278" 
d="M139 162c49 0 83 -37 83 -83s-34 -83 -83 -83s-83 37 -83 83s34 83 83 83zM139 464c49 0 83 -37 83 -83s-34 -83 -83 -83s-83 37 -83 83s34 83 83 83z" />
    <glyph glyph-name="semicolon" unicode=";" horiz-adv-x="278" 
d="M117 -174h-101l58 302h144zM139 464c49 0 83 -37 83 -83s-34 -83 -83 -83s-83 37 -83 83s34 83 83 83z" />
    <glyph glyph-name="less" unicode="&#x3c;" horiz-adv-x="600" 
d="M542 385l-349 -142l349 -142v-101l-484 201v84l484 201v-101z" />
    <glyph glyph-name="equal" unicode="=" horiz-adv-x="600" 
d="M542 402v-108h-484v108h484zM542 192v-108h-484v108h484z" />
    <glyph glyph-name="greater" unicode="&#x3e;" horiz-adv-x="600" 
d="M58 101l349 142l-349 142v101l484 -201v-84l-484 -201v101z" />
    <glyph glyph-name="question" unicode="?" horiz-adv-x="500" 
d="M314 293v-89h-138v202c128 0 150 35 150 88c0 44 -30 80 -87 80c-42 0 -73 -38 -86 -74l-136 34c26 105 115 178 224 178c142 0 235 -88 235 -232c0 -91 -72 -175 -162 -187zM240 162c49 0 83 -37 83 -83s-34 -83 -83 -83s-83 37 -83 83s34 83 83 83z" />
    <glyph glyph-name="at" unicode="@" horiz-adv-x="800" 
d="M488 358c0 47 -31 80 -77 80c-60 0 -103 -60 -103 -115c0 -47 27 -83 74 -83c63 0 106 59 106 118zM516 478l11 48h88l-49 -237c-2 -10 -6 -24 -6 -36s3 -21 14 -21c45 0 98 54 98 158c0 156 -110 240 -258 240c-163 0 -268 -120 -268 -281c0 -171 118 -279 284 -279
c75 0 143 27 192 68h90c-68 -96 -170 -150 -290 -150c-206 0 -376 152 -376 361c0 206 167 363 371 363c172 0 337 -115 337 -295c0 -214 -186 -281 -246 -281c-28 0 -52 18 -53 51l-2 1c-24 -27 -62 -52 -97 -52c-84 0 -158 80 -158 172c0 117 79 230 201 230
c48 0 89 -18 117 -60z" />
    <glyph glyph-name="A" unicode="A" horiz-adv-x="611" 
d="M210 0h-156v456c0 122 69 256 251 256s252 -134 252 -256v-456h-156v252h-152v136h152v94c0 52 -24 94 -96 94s-95 -42 -95 -94v-482z" />
    <glyph glyph-name="B" unicode="B" 
d="M192 0h-140v462c0 177 94 250 233 250c118 0 211 -84 211 -204c0 -53 -24 -106 -70 -134c66 -33 96 -97 96 -169c0 -116 -74 -205 -191 -205h-102v140h79c42 0 66 33 66 78c0 60 -35 81 -76 81h-69v122h37c50 0 82 24 82 73c0 44 -27 78 -74 78c-48 0 -82 -28 -82 -96
v-476z" />
    <glyph glyph-name="C" unicode="C" horiz-adv-x="500" 
d="M476 700v-140h-108c-102 0 -182 -111 -182 -210s80 -210 182 -210h108v-140h-116c-168 0 -330 138 -330 350s162 350 330 350h116z" />
    <glyph glyph-name="D" unicode="D" horiz-adv-x="667" 
d="M208 0h-148v700h250c136 0 324 -128 324 -356c0 -206 -156 -344 -342 -344h-42v140h42c106 0 194 104 194 205c0 139 -99 215 -216 215h-62v-560z" />
    <glyph glyph-name="E" unicode="E" horiz-adv-x="500" 
d="M449 700v-140h-90c-113 0 -167 -78 -179 -145h269v-130h-269c12 -67 66 -145 179 -145h90v-140h-77c-240 0 -344 178 -344 350s104 350 344 350h77z" />
    <glyph glyph-name="F" unicode="F" horiz-adv-x="444" 
d="M192 0h-148v480c0 126 66 220 202 220h161v-140h-126c-61 0 -89 -26 -89 -84v-74h215v-140h-215v-262z" />
    <glyph glyph-name="G" unicode="G" horiz-adv-x="778" 
d="M676 603l-94 -108c-38 43 -108 77 -181 77c-126 0 -213 -101 -213 -218s87 -218 213 -218c87 0 173 69 187 149h-194v130h350v-95c0 -138 -120 -332 -355 -332c-209 0 -357 165 -357 362s148 362 357 362c97 0 203 -28 287 -109z" />
    <glyph glyph-name="H" unicode="H" horiz-adv-x="611" 
d="M210 0h-148v700h148v-252h190v252h148v-700h-148v308h-190v-308z" />
    <glyph glyph-name="I" unicode="I" horiz-adv-x="278" 
d="M213 0h-148v700h148v-700z" />
    <glyph glyph-name="J" unicode="J" horiz-adv-x="333" 
d="M5 0v148c99 0 123 22 123 107v445h148v-442c0 -210 -88 -258 -271 -258z" />
    <glyph glyph-name="K" unicode="K" 
d="M202 0h-148v700h148v-262c70 0 82 16 101 61l86 201h162l-83 -184c-19 -43 -43 -94 -91 -111v-2c83 -6 145 -59 145 -139v-264h-148v234c0 48 -20 68 -64 68h-108v-302z" />
    <glyph glyph-name="L" unicode="L" horiz-adv-x="389" 
d="M56 700h148v-470c0 -64 26 -82 76 -82h111v-148h-147c-112 0 -188 56 -188 210v490z" />
    <glyph glyph-name="M" unicode="M" horiz-adv-x="833" 
d="M175 0h-155l69 564c11 89 43 148 123 148c66 0 114 -36 129 -104l75 -331h2l73 331c15 68 63 104 129 104c80 0 112 -59 123 -148l69 -564h-159l-49 542h-2l-127 -504c-9 -36 -27 -44 -64 -44s-56 8 -64 44l-116 504h-2z" />
    <glyph glyph-name="N" unicode="N" horiz-adv-x="667" 
d="M205 0h-148v610c0 59 39 102 102 102c71 0 104 -54 127 -102l172 -359h1h2v449h148v-611c0 -54 -20 -101 -83 -101c-62 0 -88 38 -121 105l-198 409l-2 -2v-500z" />
    <glyph glyph-name="O" unicode="O" horiz-adv-x="778" 
d="M389 712c209 0 357 -165 357 -362s-148 -362 -357 -362s-357 165 -357 362s148 362 357 362zM389 568c-131 0 -209 -101 -209 -218s78 -218 209 -218s209 101 209 218s-78 218 -209 218z" />
    <glyph glyph-name="P" unicode="P" 
d="M197 0h-148v473c0 128 91 239 243 239c145 0 243 -106 243 -239c0 -131 -93 -239 -243 -239h-54v140c83 0 149 11 149 98c0 63 -37 100 -95 100s-95 -37 -95 -100v-472z" />
    <glyph glyph-name="Q" unicode="Q" horiz-adv-x="778" 
d="M462 -6v-96h-128v344h128v-96c72 14 136 112 136 204c0 117 -78 218 -209 218s-209 -101 -209 -218c0 -76 32 -146 109 -194v-156c-147 44 -257 178 -257 350c0 197 148 362 357 362s356 -165 357 -362c1 -179 -120 -322 -284 -356z" />
    <glyph glyph-name="R" unicode="R" 
d="M200 0h-148v480c0 106 58 232 248 232c142 0 214 -108 214 -208c0 -64 -30 -118 -87 -145c85 -32 97 -78 97 -160v-199h-148v198c0 54 -20 80 -79 80h-56v130c64 0 125 13 125 82c0 54 -39 82 -83 82s-83 -28 -83 -82v-490z" />
    <glyph glyph-name="S" unicode="S" horiz-adv-x="500" 
d="M441 700v-130h-200c-36 0 -52 -24 -52 -53c0 -63 278 -159 278 -305c0 -98 -44 -212 -198 -212h-234v140h230c26 0 46 20 46 50c0 74 -278 148 -278 324c0 130 95 186 174 186h234z" />
    <glyph glyph-name="T" unicode="T" horiz-adv-x="444" 
d="M148 0v560h-152v140h452v-140h-152v-560h-148z" />
    <glyph glyph-name="U" unicode="U" horiz-adv-x="611" 
d="M402 700h148l1 -494c0 -109 -78 -218 -245 -218s-245 109 -245 218v494h148v-452c0 -94 44 -116 97 -116c52 0 96 22 96 116v452z" />
    <glyph glyph-name="V" unicode="V" 
d="M-10 700h158l123 -538h2l135 538h158l-156 -588c-19 -73 -50 -124 -139 -124s-121 51 -139 124z" />
    <glyph glyph-name="W" unicode="W" horiz-adv-x="889" 
d="M370 700h148v-444c0 -90 10 -128 81 -128s81 38 81 128v444h148v-532c0 -100 -88 -180 -206 -180c-77 0 -126 21 -178 77c-52 -56 -101 -77 -178 -77c-118 0 -206 80 -206 180v532h148v-444c0 -90 10 -128 81 -128s81 38 81 128v444z" />
    <glyph glyph-name="X" unicode="X" horiz-adv-x="500" 
d="M18 0v138c105 24 158 107 158 215s-53 191 -158 209v138c108 0 192 -63 231 -159c41 96 125 159 233 159v-138c-105 -18 -158 -101 -158 -209s53 -191 158 -215v-138c-105 0 -197 69 -231 168h-2c-34 -99 -126 -168 -231 -168z" />
    <glyph glyph-name="Y" unicode="Y" 
d="M50 700h148v-206c0 -66 20 -104 80 -104s80 38 80 104v206h148v-256c0 -70 -36 -152 -154 -188v-256h-148v256c-59 18 -97 48 -121 81c-24 34 -33 72 -33 107v256z" />
    <glyph glyph-name="Z" unicode="Z" horiz-adv-x="500" 
d="M479 140v-140h-387c-46 0 -79 40 -79 72c0 36 6 63 23 91l245 397h-235v140h336c46 0 83 -40 83 -87c0 -29 -11 -51 -34 -89l-234 -384h282z" />
    <glyph glyph-name="bracketleft" unicode="[" horiz-adv-x="333" 
d="M274 -216h-198v916h198v-68h-96v-780h96v-68z" />
    <glyph glyph-name="backslash" unicode="\" horiz-adv-x="278" 
d="M-70 712h108l311 -724h-108z" />
    <glyph glyph-name="bracketright" unicode="]" horiz-adv-x="333" 
d="M59 700h198v-916h-198v68h96v780h-96v68z" />
    <glyph glyph-name="asciicircum" unicode="^" horiz-adv-x="600" 
d="M179 325h-109l180 375h100l180 -375h-110l-120 265z" />
    <glyph glyph-name="underscore" unicode="_" horiz-adv-x="500" 
d="M500 -125h-500v50h500v-50z" />
    <glyph glyph-name="quoteleft" unicode="&#x2018;" horiz-adv-x="222" 
d="M37 700h129l27 -228h-99z" />
    <glyph glyph-name="a" unicode="a" 
d="M510 0h-128v274c0 58 -44 96 -114 96c-61 0 -108 -56 -108 -127c0 -65 47 -117 112 -117c28 0 49 6 73 15v-133c-29 -7 -55 -12 -81 -12c-150 0 -232 115 -232 242c0 156 104 260 238 260c146 0 240 -92 240 -218v-280z" />
    <glyph glyph-name="b" unicode="b" 
d="M46 700h128v-457c0 -71 47 -121 114 -121c61 0 108 50 108 121s-47 121 -112 121c-28 0 -49 -6 -69 -15v135c25 7 51 14 77 14c137 0 232 -123 232 -254c0 -142 -98 -256 -238 -256c-142 0 -240 114 -240 256v456z" />
    <glyph glyph-name="c" unicode="c" horiz-adv-x="389" 
d="M359 486v-128h-85c-71 0 -116 -48 -116 -115s45 -115 116 -115h85v-128h-89c-150 0 -240 94 -240 243s90 243 240 243h89z" />
    <glyph glyph-name="d" unicode="d" 
d="M382 700h128v-456c0 -142 -98 -256 -240 -256c-140 0 -238 114 -238 256c0 131 95 254 232 254c26 0 52 -7 77 -14v-135c-20 9 -41 15 -69 15c-65 0 -112 -50 -112 -121s47 -121 108 -121c67 0 114 50 114 121v457z" />
    <glyph glyph-name="e" unicode="e" 
d="M403 220l129 -14c-24 -131 -125 -218 -262 -218c-151 0 -246 116 -246 255s95 255 246 255c130 0 204 -70 236 -144l-247 -185l-62 81l127 98c-13 15 -36 22 -63 22c-63 0 -109 -57 -109 -127c0 -60 47 -127 123 -127c64 0 117 39 128 104z" />
    <glyph glyph-name="f" unicode="f" horiz-adv-x="278" 
d="M169 0h-128v488c0 110 39 212 177 212h51v-128h-50c-31 0 -50 -12 -50 -49v-37h100v-124h-100v-362z" />
    <glyph glyph-name="g" unicode="g" 
d="M97 -191v131c52 -20 97 -28 152 -28c61 0 129 15 129 104v238c0 79 -57 114 -109 114c-63 0 -109 -47 -109 -117s46 -113 109 -113c32 0 52 6 71 12v-133c-26 -9 -54 -13 -71 -13c-148 0 -237 103 -237 245s89 249 237 249c129 0 237 -107 237 -227v-235
c0 -167 -85 -252 -254 -252c-52 0 -106 7 -155 25z" />
    <glyph glyph-name="h" unicode="h" horiz-adv-x="500" 
d="M177 0h-128v700h128v-251h2c28 39 65 49 110 49c80 0 162 -56 162 -162v-336h-128v292c0 50 -26 78 -73 78s-73 -28 -73 -78v-292z" />
    <glyph glyph-name="i" unicode="i" horiz-adv-x="222" 
d="M175 0h-128v486h128v-486zM111 712c43 0 76 -29 76 -81s-33 -81 -76 -81s-76 29 -76 81s33 81 76 81z" />
    <glyph glyph-name="j" unicode="j" horiz-adv-x="222" 
d="M45 486h128v-502c0 -150 -39 -212 -174 -212h-51v124h50c28 0 47 17 47 64v526zM111 712c43 0 76 -29 76 -81s-33 -81 -76 -81s-76 29 -76 81s33 81 76 81z" />
    <glyph glyph-name="k" unicode="k" horiz-adv-x="500" 
d="M178 0h-128v700h128v-378h37c21 0 43 17 58 51l50 113h143l-51 -113c-29 -63 -43 -83 -81 -91v-3c96 -17 122 -64 122 -156v-123h-128v112c0 64 -28 86 -77 86h-73v-198z" />
    <glyph glyph-name="l" unicode="l" horiz-adv-x="222" 
d="M175 0h-128v700h128v-700z" />
    <glyph glyph-name="m" unicode="m" horiz-adv-x="778" 
d="M182 0h-134v336c0 106 80 162 199 162c52 0 109 -33 145 -74c42 50 94 74 154 74c96 0 184 -56 184 -162v-336h-134v292c0 50 -23 79 -70 78c-24 0 -52 -12 -70 -45v-325h-134v292c0 50 -23 78 -70 78s-70 -28 -70 -78v-292z" />
    <glyph glyph-name="n" unicode="n" horiz-adv-x="500" 
d="M177 0h-128v336c0 106 82 162 201 162s201 -56 201 -162v-336h-128v292c0 50 -26 78 -73 78s-73 -28 -73 -78v-292z" />
    <glyph glyph-name="o" unicode="o" 
d="M278 370c-71 0 -118 -46 -118 -127s47 -127 118 -127s118 46 118 127s-47 127 -118 127zM278 498c151 0 246 -116 246 -255s-95 -255 -246 -255s-246 116 -246 255s95 255 246 255z" />
    <glyph glyph-name="p" unicode="p" 
d="M174 -216h-128v458c0 142 98 256 240 256c140 0 238 -114 238 -256c0 -131 -95 -254 -232 -254c-26 0 -52 7 -77 14v135c20 -9 41 -15 69 -15c65 0 112 50 112 121s-47 121 -108 121c-67 0 -114 -50 -114 -121v-459z" />
    <glyph glyph-name="q" unicode="q" 
d="M510 -216h-128v459c0 71 -47 121 -114 121c-61 0 -108 -50 -108 -121s47 -121 112 -121c28 0 49 6 69 15v-135c-25 -7 -51 -14 -77 -14c-137 0 -232 123 -232 254c0 142 98 256 238 256c142 0 240 -114 240 -256v-458z" />
    <glyph glyph-name="r" unicode="r" horiz-adv-x="333" 
d="M182 0h-136v486h121v-92h2c22 63 69 98 123 98h27v-136h-31c-64 0 -106 -44 -106 -118v-238z" />
    <glyph glyph-name="s" unicode="s" horiz-adv-x="389" 
d="M23 0v120h165c24 0 36 12 36 27c0 61 -196 75 -196 196c0 105 74 143 158 143h154v-120h-148c-16 0 -32 -2 -32 -22c0 -44 206 -68 206 -196c0 -97 -72 -148 -164 -148h-179z" />
    <glyph glyph-name="t" unicode="t" horiz-adv-x="278" 
d="M166 486h93v-124h-93v-180c0 -36 18 -54 44 -54h49v-128h-67c-118 0 -154 70 -154 178v438h128v-130z" />
    <glyph glyph-name="u" unicode="u" horiz-adv-x="500" 
d="M49 486h128v-292c0 -50 26 -78 73 -78s73 28 73 78v292h128v-336c0 -106 -82 -162 -201 -162s-201 56 -201 162v336z" />
    <glyph glyph-name="v" unicode="v" horiz-adv-x="444" 
d="M303 486h144l-125 -402c-15 -49 -39 -96 -104 -96s-90 47 -104 96l-118 402h142l81 -322h2z" />
    <glyph glyph-name="w" unicode="w" horiz-adv-x="778" 
d="M322 486h134v-292c0 -50 19 -78 66 -78s70 28 70 78v292h134v-324c0 -118 -88 -174 -184 -174c-60 0 -112 24 -157 82c-37 -58 -89 -82 -149 -82c-96 0 -184 56 -184 174v324h134v-292c0 -50 23 -78 70 -78s66 28 66 78v292z" />
    <glyph glyph-name="x" unicode="x" horiz-adv-x="389" 
d="M382 486v-120h-26c-56 0 -101 -46 -101 -123s45 -123 101 -123h27v-120h-33c-56 0 -123 34 -157 97c-30 -63 -83 -97 -153 -97h-33v120h27c56 0 101 46 101 123s-45 123 -101 123h-27v120h33c56 0 123 -34 157 -97c30 63 83 97 153 97h32z" />
    <glyph glyph-name="y" unicode="y" horiz-adv-x="500" 
d="M47 486h128v-284c0 -54 20 -86 75 -86s75 32 75 86v284h128v-310c0 -90 -44 -160 -136 -180v-202h-134v202c-46 10 -80 33 -102 64c-23 31 -34 71 -34 116v310z" />
    <glyph glyph-name="z" unicode="z" horiz-adv-x="444" 
d="M42 362v124h278c66 0 94 -32 94 -66c0 -48 -10 -70 -38 -101l-177 -195h215v-124h-312c-58 0 -90 34 -90 77c0 27 11 49 30 69l200 216h-200z" />
    <glyph glyph-name="braceleft" unicode="{" horiz-adv-x="444" 
d="M327 -216h-95c-43 0 -126 42 -126 134v205c0 63 -69 78 -96 78v90c27 0 96 13 96 70v205c0 92 83 134 126 134h95v-82h-55c-51 0 -64 -39 -64 -68v-202c0 -79 -64 -98 -96 -101v-3c32 -3 96 -14 96 -108v-202c0 -29 13 -68 64 -68h55v-82z" />
    <glyph glyph-name="bar" unicode="|" horiz-adv-x="222" 
d="M57 0v700h108v-700h-108z" />
    <glyph glyph-name="braceright" unicode="}" horiz-adv-x="444" 
d="M117 700h95c43 0 126 -42 126 -134v-205c0 -64 69 -78 96 -78v-90c-27 0 -96 -14 -96 -70v-206c0 -91 -83 -133 -126 -133h-95v82h55c51 0 64 39 64 68v202c0 79 64 98 96 101v3c-32 3 -96 14 -96 108v202c0 29 -13 68 -64 68h-55v82z" />
    <glyph glyph-name="asciitilde" unicode="~" horiz-adv-x="600" 
d="M495 333l36 -90c-30 -42 -63 -86 -125 -86c-37 0 -69 15 -102 33c-32 18 -69 35 -115 35c-44 0 -68 -37 -84 -72l-36 90c22 42 58 86 125 86c34 0 73 -15 111 -32c37 -16 75 -36 102 -36c40 0 65 37 88 72z" />
    <glyph glyph-name="exclamdown" unicode="&#xa1;" horiz-adv-x="278" 
d="M139 334c-49 0 -83 37 -83 83s34 83 83 83s83 -37 83 -83s-34 -83 -83 -83zM220 -216h-162l13 511h136z" />
    <glyph glyph-name="cent" unicode="&#xa2;" 
d="M214 553v147h78v-147h66v-106h-94c-68 0 -102 -34 -102 -95s34 -94 102 -94h94v-106h-66v-144h-78v144c-110 15 -168 102 -168 200s58 185 168 201z" />
    <glyph glyph-name="sterling" unicode="&#xa3;" 
d="M114 294h-63v140h63v77c0 144 87 201 225 201c32 0 64 -4 96 -8v-140c-25 4 -49 8 -75 8c-74 0 -98 -22 -98 -68v-70h97v-140h-97c0 -63 -4 -112 -56 -151l2 -3h122c68 0 104 37 106 142h140c0 -168 -78 -282 -246 -282h-316v140c90 0 100 49 100 154z" />
    <glyph glyph-name="fraction" unicode="&#x2044;" horiz-adv-x="167" 
d="M-167 -12l406 724h95l-410 -724h-91z" />
    <glyph glyph-name="yen" unicode="&#xa5;" 
d="M475 284v-100h-123v-184h-148v184h-123v100h123v72h-123v100h103c-18 44 -62 93 -138 106v138c108 0 192 -63 232 -159c40 96 124 159 232 159v-138c-76 -13 -122 -58 -138 -106h103v-100h-123v-72h123z" />
    <glyph glyph-name="florin" unicode="&#x192;" 
d="M9 -191l21 127c22 -12 42 -18 67 -18c79 0 85 85 92 144l27 242h-128v122h140c11 130 44 274 204 274c39 0 78 -11 115 -24l-23 -127c-26 11 -48 17 -70 17c-54 0 -78 -44 -86 -140h141v-122h-150l-35 -296c-13 -107 -74 -224 -194 -224c-41 0 -83 9 -121 25z" />
    <glyph glyph-name="section" unicode="&#xa7;" horiz-adv-x="500" 
d="M417 631l-85 -60c-18 24 -45 57 -80 57c-20 0 -36 -19 -36 -40c0 -62 242 -203 242 -332c0 -66 -46 -103 -107 -112c31 -31 53 -72 53 -117c0 -90 -77 -127 -157 -127c-73 0 -123 32 -167 86l83 63c13 -27 42 -65 76 -65c33 0 53 20 53 45c0 67 -250 219 -250 343
c0 60 51 112 111 112c-27 27 -49 61 -49 100c0 93 71 128 154 128c67 0 115 -34 159 -81zM346 248c0 38 -126 170 -159 170c-22 0 -33 -13 -33 -35c0 -32 124 -167 157 -167c20 0 35 11 35 32z" />
    <glyph glyph-name="currency" unicode="&#xa4;" 
d="M19 151l58 58c-30 33 -47 85 -47 141c0 54 15 110 47 141l-58 58l61 61l56 -57c32 27 86 45 142 45s110 -18 138 -43l58 57l63 -64l-54 -56c27 -32 43 -88 43 -142c0 -56 -16 -108 -45 -143l56 -56l-58 -58l-57 58c-34 -31 -88 -49 -144 -49s-110 17 -144 47l-56 -57z
M278 494c-77 0 -136 -63 -136 -144s59 -144 136 -144s136 63 136 144s-59 144 -136 144z" />
    <glyph glyph-name="quotesingle" unicode="'" horiz-adv-x="222" 
d="M55 429v271h112v-271h-112z" />
    <glyph glyph-name="quotedblleft" unicode="&#x201c;" horiz-adv-x="389" 
d="M219 700h129l27 -228h-99zM34 700h129l27 -228h-99z" />
    <glyph glyph-name="guillemotleft" unicode="&#xab;" horiz-adv-x="500" 
d="M273 89h-99l-127 154l124 154h100l-125 -154zM453 89h-99l-127 154l124 154h100l-125 -154z" />
    <glyph glyph-name="guilsinglleft" unicode="&#x2039;" horiz-adv-x="333" 
d="M284 89h-99l-127 154l124 154h100l-125 -154z" />
    <glyph glyph-name="guilsinglright" unicode="&#x203a;" horiz-adv-x="333" 
d="M58 397h99l127 -154l-124 -154h-100l125 154z" />
    <glyph glyph-name="fi" unicode="&#xfb01;" horiz-adv-x="500" 
d="M174 0h-128v488c0 110 39 212 177 212h51v-128h-50c-31 0 -50 -12 -50 -49v-37h100v-124h-100v-362zM450 0h-128v486h128v-486zM386 712c43 0 76 -29 76 -81s-33 -81 -76 -81s-76 29 -76 81s33 81 76 81z" />
    <glyph glyph-name="fl" unicode="&#xfb02;" horiz-adv-x="500" 
d="M174 0h-128v488c0 110 39 212 177 212h51v-128h-50c-31 0 -50 -12 -50 -49v-37h100v-124h-100v-362zM450 0h-128v700h128v-700z" />
    <glyph glyph-name="endash" unicode="&#x2013;" horiz-adv-x="500" 
d="M0 200v86h500v-86h-500z" />
    <glyph glyph-name="dagger" unicode="&#x2020;" horiz-adv-x="500" 
d="M443 414l-172 44l45 -164l-45 -398h-45l-43 398l46 164l-172 -44v130l173 -44l-46 200h132l-46 -200l173 44v-130z" />
    <glyph glyph-name="daggerdbl" unicode="&#x2021;" horiz-adv-x="500" 
d="M443 544v-130l-172 44l45 -164l-45 -164l172 44v-130l-173 44l46 -200h-132l46 200l-173 -44v130l172 -44l-46 164l46 164l-172 -44v130l173 -44l-46 200h132l-46 -200z" />
    <glyph glyph-name="periodcentered" unicode="&#xb7;" horiz-adv-x="278" 
d="M139 326c49 0 83 -37 83 -83s-34 -83 -83 -83s-83 37 -83 83s34 83 83 83z" />
    <glyph glyph-name="paragraph" unicode="&#xb6;" horiz-adv-x="620" 
d="M242 -190v536c-142 0 -222 67 -222 174c0 142 105 180 244 180h303v-890h-112v806h-101v-806h-112z" />
    <glyph glyph-name="bullet" unicode="&#x2022;" horiz-adv-x="500" 
d="M251 525c98 0 174 -76 174 -174s-76 -176 -174 -176s-176 78 -176 176s78 174 176 174z" />
    <glyph glyph-name="quotesinglbase" unicode="&#x201a;" horiz-adv-x="222" 
d="M56 128h129l-57 -228h-99z" />
    <glyph glyph-name="quotedblbase" unicode="&#x201e;" horiz-adv-x="389" 
d="M226 128h129l-57 -228h-99zM41 128h129l-57 -228h-99z" />
    <glyph glyph-name="quotedblright" unicode="&#x201d;" horiz-adv-x="389" 
d="M226 700h129l-57 -228h-99zM41 700h129l-57 -228h-99z" />
    <glyph glyph-name="guillemotright" unicode="&#xbb;" horiz-adv-x="500" 
d="M47 397h99l127 -154l-124 -154h-100l125 154zM227 397h99l127 -154l-124 -154h-100l125 154z" />
    <glyph glyph-name="ellipsis" unicode="&#x2026;" horiz-adv-x="1000" 
d="M167 162c49 0 83 -37 83 -83s-34 -83 -83 -83s-83 37 -83 83s34 83 83 83zM500 162c49 0 83 -37 83 -83s-34 -83 -83 -83s-83 37 -83 83s34 83 83 83zM833 162c49 0 83 -37 83 -83s-34 -83 -83 -83s-83 37 -83 83s34 83 83 83z" />
    <glyph glyph-name="perthousand" unicode="&#x2030;" horiz-adv-x="1000" 
d="M6 527c0 85 67 151 151 151s151 -66 151 -151s-67 -151 -151 -151s-151 66 -151 151zM98 527c0 -36 23 -59 59 -59s59 23 59 59s-23 59 -59 59s-59 -23 -59 -59zM421 167c0 -36 23 -59 59 -59s59 23 59 59s-23 59 -59 59s-59 -23 -59 -59zM329 167c0 85 67 151 151 151
s151 -66 151 -151s-67 -151 -151 -151s-151 66 -151 151zM783 167c0 -36 23 -59 59 -59s59 23 59 59s-23 59 -59 59s-59 -23 -59 -59zM691 167c0 85 67 151 151 151s151 -66 151 -151s-67 -151 -151 -151s-151 66 -151 151zM593 700l-471 -700h-73l471 700h73z" />
    <glyph glyph-name="questiondown" unicode="&#xbf;" horiz-adv-x="500" 
d="M186 203v89h138v-202c-128 0 -150 -35 -150 -88c0 -44 30 -80 87 -80c42 0 73 38 86 74l136 -34c-26 -105 -115 -178 -224 -178c-142 0 -235 88 -235 232c0 91 72 175 162 187zM260 334c-49 0 -83 37 -83 83s34 83 83 83s83 -37 83 -83s-34 -83 -83 -83z" />
    <glyph glyph-name="grave" unicode="`" horiz-adv-x="222" 
d="M-53 700h154l93 -144h-99z" />
    <glyph glyph-name="acute" unicode="&#xb4;" horiz-adv-x="222" 
d="M121 700h154l-148 -144h-99z" />
    <glyph glyph-name="circumflex" unicode="&#x2c6;" horiz-adv-x="222" 
d="M288 556h-113l-63 82l-64 -82h-114l115 144h125z" />
    <glyph glyph-name="tilde" unicode="&#x2dc;" horiz-adv-x="222" 
d="M229 690h65c-11 -61 -42 -122 -111 -122c-47 0 -107 36 -147 36c-25 0 -39 -18 -44 -42h-64c9 63 46 124 115 124c53 0 107 -38 139 -38c25 0 43 19 47 42z" />
    <glyph glyph-name="macron" unicode="&#xaf;" horiz-adv-x="222" 
d="M285 587h-347v74h347v-74z" />
    <glyph glyph-name="breve" unicode="&#x2d8;" horiz-adv-x="222" 
d="M214 700h65c-13 -98 -77 -144 -168 -144s-155 46 -168 144h67c10 -46 49 -69 102 -69s92 23 102 69z" />
    <glyph glyph-name="dotaccent" unicode="&#x2d9;" horiz-adv-x="222" 
d="M111 692c40 0 70 -31 70 -70s-30 -70 -70 -70s-70 31 -70 70s30 70 70 70z" />
    <glyph glyph-name="dieresis" unicode="&#xa8;" horiz-adv-x="222" 
d="M209 692c40 0 70 -31 70 -70s-30 -70 -70 -70s-70 31 -70 70s30 70 70 70zM13 692c40 0 70 -31 70 -70s-30 -70 -70 -70s-70 31 -70 70s30 70 70 70z" />
    <glyph glyph-name="ring" unicode="&#x2da;" horiz-adv-x="222" 
d="M111 766c58 0 106 -48 106 -106s-48 -106 -106 -106s-106 48 -106 106s48 106 106 106zM111 712c-28 0 -52 -23 -52 -52s24 -52 52 -52s52 23 52 52s-24 52 -52 52z" />
    <glyph glyph-name="cedilla" unicode="&#xb8;" horiz-adv-x="222" 
d="M-4 -193l18 41c24 -7 50 -18 75 -18c28 0 55 13 55 44c0 20 -22 34 -40 34c-16 0 -30 -4 -45 -9l-21 20l59 90h53l-42 -62c11 3 22 5 41 5c34 0 81 -25 81 -77c0 -67 -68 -95 -126 -95c-37 0 -75 12 -108 27z" />
    <glyph glyph-name="hungarumlaut" unicode="&#x2dd;" horiz-adv-x="222" 
d="M1 700h154l-148 -144h-99zM201 700h154l-148 -144h-99z" />
    <glyph glyph-name="ogonek" unicode="&#x2db;" horiz-adv-x="222" 
d="M186 -152l18 -41c-33 -15 -71 -27 -132 -27c-58 0 -102 28 -102 71c0 101 138 149 234 149l-8 -14c-96 -22 -140 -60 -140 -112c0 -31 27 -44 55 -44c25 0 51 11 75 18z" />
    <glyph glyph-name="caron" unicode="&#x2c7;" horiz-adv-x="222" 
d="M-66 700h113l63 -82l64 82h114l-115 -144h-125z" />
    <glyph glyph-name="emdash" unicode="&#x2014;" horiz-adv-x="1000" 
d="M1000 200h-1000v86h1000v-86z" />
    <glyph glyph-name="AE" unicode="&#xc6;" horiz-adv-x="889" 
d="M198 0h-148v456c0 162 108 256 245 256c84 0 164 -40 208 -114c66 79 150 102 240 102h100v-140h-90c-113 0 -187 -78 -199 -145h289v-130h-289c12 -67 86 -145 199 -145h90v-140h-101c-84 0 -170 32 -212 69v-69h-134v285h-151v130h151v77c0 44 -44 80 -92 80
c-74 0 -106 -42 -106 -114v-458z" />
    <glyph glyph-name="ordfeminine" unicode="&#xaa;" horiz-adv-x="334" 
d="M324 413h-92v161c0 38 -24 60 -68 60c-43 0 -68 -33 -68 -71c0 -43 25 -72 68 -72c18 0 31 3 44 9v-82c-16 -4 -33 -7 -50 -7c-97 0 -154 69 -154 145c0 93 71 156 158 156c96 0 162 -55 162 -131v-168z" />
    <glyph glyph-name="Lslash" unicode="&#x141;" horiz-adv-x="389" 
d="M204 348v-118c0 -64 26 -82 76 -82h111v-148h-147c-112 0 -188 56 -188 210v100l-54 -14v120l54 14v270h148v-232l70 18v-120z" />
    <glyph glyph-name="Oslash" unicode="&#xd8;" horiz-adv-x="778" 
d="M214 226l287 311c-31 20 -68 31 -112 31c-131 0 -209 -101 -209 -218c0 -46 12 -89 34 -124zM564 474l-287 -311c31 -20 68 -31 112 -31c131 0 209 101 209 218c0 46 -12 89 -34 124zM662 712h122l-119 -129c51 -63 81 -145 81 -233c0 -197 -148 -362 -357 -362
c-82 0 -153 25 -211 68l-62 -68h-121l119 129c-52 63 -82 145 -82 233c0 197 148 362 357 362c81 0 153 -24 211 -67z" />
    <glyph glyph-name="OE" unicode="&#x152;" horiz-adv-x="1000" 
d="M970 560h-90c-113 0 -167 -78 -180 -145h270v-130h-270c13 -67 67 -145 180 -145h90v-140h-60c-110 0 -200 26 -282 124c-74 -91 -162 -136 -268 -136c-180 0 -342 158 -342 362s162 362 342 362c106 0 194 -45 268 -136c82 98 172 124 282 124h60v-140zM363 568
c-108 0 -197 -92 -197 -218s89 -218 197 -218s197 92 197 218s-89 218 -197 218z" />
    <glyph glyph-name="ordmasculine" unicode="&#xba;" horiz-adv-x="334" 
d="M167 712c98 0 160 -70 160 -153c0 -84 -62 -153 -160 -153s-160 69 -160 153c0 83 62 153 160 153zM167 630c-40 0 -72 -31 -72 -71s32 -71 72 -71s72 31 72 71s-32 71 -72 71z" />
    <glyph glyph-name="ae" unicode="&#xe6;" horiz-adv-x="889" 
d="M108 345l-52 106c57 34 115 47 181 47c70 0 131 -24 183 -71c50 45 110 71 178 71c132 0 188 -83 236 -158l-254 -164l-50 82l138 88c-20 16 -44 24 -75 24c-67 0 -113 -57 -113 -127c0 -60 47 -127 123 -127c64 0 117 39 128 104l135 -14c-30 -131 -131 -218 -268 -218
c-91 0 -147 33 -200 96c-46 -61 -119 -96 -195 -96c-90 0 -166 45 -166 145c0 135 180 187 285 211c-28 18 -60 34 -94 34c-48 0 -78 -11 -120 -33zM173 140c0 -30 32 -44 58 -44c87 0 121 87 121 163c-54 -13 -179 -47 -179 -119z" />
    <glyph glyph-name="dotlessi" unicode="&#x131;" horiz-adv-x="222" 
d="M175 0h-128v486h128v-486z" />
    <glyph glyph-name="lslash" unicode="&#x142;" horiz-adv-x="222" 
d="M47 700h128v-248l53 24v-100l-53 -24v-352h-128v296l-53 -24v100l53 24v304z" />
    <glyph glyph-name="oslash" unicode="&#xf8;" 
d="M172 182l149 180c-13 6 -27 8 -43 8c-71 0 -118 -46 -118 -127c0 -24 4 -45 12 -61zM449 516h109v-2v-2l-90 -103c36 -43 56 -102 56 -166c0 -139 -95 -255 -246 -255c-51 0 -96 13 -132 36l-42 -50h-105v4l87 101c-35 44 -54 102 -54 164c0 139 95 255 246 255
c49 0 93 -12 128 -34zM383 307l-152 -182c13 -6 29 -9 47 -9c71 0 118 46 118 127c0 25 -4 46 -13 64z" />
    <glyph glyph-name="oe" unicode="&#x153;" horiz-adv-x="944" 
d="M783 219l132 -12c-27 -131 -128 -219 -265 -219c-79 0 -134 17 -187 78c-58 -52 -117 -78 -188 -78c-151 0 -246 116 -246 255s95 255 246 255c75 0 139 -27 185 -76c63 57 109 76 190 76c124 0 192 -82 237 -158l-250 -160l-58 80l140 90c-20 20 -51 26 -78 26
c-62 0 -112 -62 -112 -132c0 -60 50 -128 126 -128c64 0 117 40 128 103zM157 243c0 -81 47 -127 118 -127s118 46 118 127s-47 127 -118 127s-118 -46 -118 -127z" />
    <glyph glyph-name="germandbls" unicode="&#xdf;" horiz-adv-x="611" 
d="M70 0v362h-63v124h63v44c0 106 94 170 204 170c89 0 185 -57 185 -155c0 -47 -15 -90 -60 -112c89 -50 177 -131 177 -241c0 -138 -112 -192 -233 -192h-95v124h94c61 0 100 22 100 76c0 104 -182 168 -182 209c0 35 73 51 73 109c0 47 -32 72 -68 72
c-33 0 -61 -18 -61 -64v-526h-134z" />
    <glyph glyph-name="onesuperior" unicode="&#xb9;" horiz-adv-x="333" 
d="M58 621v84h168v-420h-102v336h-66z" />
    <glyph glyph-name="logicalnot" unicode="&#xac;" horiz-adv-x="600" 
d="M434 84v210h-376v108h484v-318h-108z" />
    <glyph glyph-name="mu" unicode="&#xb5;" horiz-adv-x="500" 
d="M177 -216h-128v702h128v-292c0 -50 26 -78 73 -78s73 28 73 78v292h128v-336c0 -106 -82 -162 -201 -162c-27 0 -52 3 -73 9v-213z" />
    <glyph glyph-name="trademark" unicode="&#x2122;" horiz-adv-x="1000" 
d="M600 700l94 -250l93 250h153v-420h-106v290h-2l-98 -290h-81l-98 290h-2v-290h-106v420h153zM369 700v-86h-115v-334h-112v334h-114v86h341z" />
    <glyph glyph-name="Eth" unicode="&#xd0;" horiz-adv-x="667" 
d="M322 448v-140h-114v-308h-148v308h-66v140h66v252h250c136 0 324 -128 324 -356c0 -206 -156 -344 -342 -344h-42v140h42c106 0 194 104 194 205c0 139 -99 215 -216 215h-62v-112h114z" />
    <glyph glyph-name="onehalf" unicode="&#xbd;" horiz-adv-x="834" 
d="M137 -12l406 724h95l-410 -724h-91zM807 0h-253c-38 0 -70 12 -70 50c0 29 9 39 64 90l94 86c30 28 53 51 53 76c0 18 -20 41 -51 41s-50 -21 -50 -43c0 -27 16 -50 30 -54l-70 -61c-40 22 -62 68 -62 113c0 74 66 129 154 129c85 0 151 -55 151 -129
c0 -58 -27 -87 -71 -125l-105 -89h186v-84zM58 621v84h168v-420h-102v336h-66z" />
    <glyph glyph-name="plusminus" unicode="&#xb1;" horiz-adv-x="600" 
d="M246 366v120h108v-120h188v-108h-188v-121h-108v121h-188v108h188zM58 0v108h484v-108h-484z" />
    <glyph glyph-name="Thorn" unicode="&#xde;" 
d="M292 134h-54v140c83 0 149 11 149 98c0 63 -37 100 -95 100s-95 -37 -95 -100v-372h-148v700h148v-106c29 12 61 18 95 18c145 0 243 -111 243 -239s-98 -239 -243 -239z" />
    <glyph glyph-name="onequarter" unicode="&#xbc;" horiz-adv-x="834" 
d="M149 -12l406 724h95l-410 -724h-91zM533 169h109v118l90 135l4 3v-256h40v-84h-40v-85h-94v85h-140c-31 0 -63 23 -63 61c0 26 14 48 25 65l135 209h99zM58 621v84h168v-420h-102v336h-66z" />
    <glyph glyph-name="divide" unicode="&#xf7;" horiz-adv-x="600" 
d="M542 189h-484v108h484v-108zM216 442c0 46 39 85 85 85s85 -39 85 -85s-39 -85 -85 -85s-85 39 -85 85zM216 44c0 46 39 85 85 85s85 -39 85 -85s-39 -85 -85 -85s-85 39 -85 85z" />
    <glyph glyph-name="brokenbar" unicode="&#xa6;" horiz-adv-x="222" 
d="M57 0v275h108v-275h-108zM57 425v275h108v-275h-108z" />
    <glyph glyph-name="degree" unicode="&#xb0;" horiz-adv-x="400" 
d="M200 644c-40 0 -71 -26 -71 -75s31 -75 71 -75s71 26 71 75s-31 75 -71 75zM200 712c80 0 143 -63 143 -143s-63 -143 -143 -143s-143 63 -143 143s63 143 143 143z" />
    <glyph glyph-name="thorn" unicode="&#xfe;" 
d="M174 -216h-128v916h128v-230c32 18 70 28 112 28c140 0 238 -114 238 -256c0 -131 -95 -254 -232 -254c-26 0 -52 7 -77 14v135c20 -9 41 -15 69 -15c65 0 112 50 112 121s-47 121 -108 121c-67 0 -114 -50 -114 -121v-459z" />
    <glyph glyph-name="threequarters" unicode="&#xbe;" horiz-adv-x="834" 
d="M175 -12l406 724h95l-410 -724h-91zM533 169h109v118l90 135l4 3v-256h40v-84h-40v-85h-94v85h-140c-31 0 -63 23 -63 61c0 26 14 48 25 65l135 209h99zM14 285v86h135c37 0 65 12 65 50c0 39 -28 50 -65 50h-88v54l133 98v2h-173v80h193c63 0 90 -31 90 -62
c0 -56 -59 -75 -96 -108c67 -11 118 -56 118 -121c0 -95 -74 -129 -165 -129h-147z" />
    <glyph glyph-name="twosuperior" unicode="&#xb2;" horiz-adv-x="333" 
d="M326 285h-253c-38 0 -70 12 -70 50c0 29 9 39 64 90l94 86c30 28 53 51 53 76c0 18 -20 41 -51 41s-50 -21 -50 -43c0 -27 16 -50 30 -54l-70 -61c-40 22 -62 68 -62 113c0 74 66 129 154 129c85 0 151 -55 151 -129c0 -58 -27 -87 -71 -125l-105 -89h186v-84z" />
    <glyph glyph-name="registered" unicode="&#xae;" horiz-adv-x="800" 
d="M339 318v-166h-86v398h149c103 0 160 -30 160 -121c0 -73 -40 -101 -107 -105l103 -172h-87l-92 166h-40zM339 386h69c44 0 68 8 68 48s-24 48 -68 48h-69v-96zM400 712c195 0 374 -135 374 -362s-179 -362 -374 -362s-374 135 -374 362s179 362 374 362zM400 626
c-146 0 -262 -112 -262 -276s116 -276 262 -276s262 112 262 276s-116 276 -262 276z" />
    <glyph glyph-name="minus" unicode="&#x2212;" horiz-adv-x="600" 
d="M542 189h-484v108h484v-108z" />
    <glyph glyph-name="eth" unicode="&#xf0;" 
d="M210 636l104 64c17 -13 33 -28 48 -43l88 43l34 -64l-74 -36c64 -83 114 -195 114 -326c0 -180 -103 -286 -246 -286c-151 0 -246 116 -246 255c0 124 68 251 268 247c20 -36 44 -94 56 -146c-24 20 -54 26 -78 26c-71 0 -118 -46 -118 -127s47 -127 118 -127
s119 52 119 158c0 101 -37 197 -96 272l-81 -40l-34 64l65 32c-13 12 -27 24 -41 34z" />
    <glyph glyph-name="multiply" unicode="&#xd7;" horiz-adv-x="600" 
d="M463 0l-164 165l-162 -165l-79 80l162 163l-162 163l79 80l162 -163l164 163l79 -80l-164 -163l164 -163z" />
    <glyph glyph-name="threesuperior" unicode="&#xb3;" horiz-adv-x="333" 
d="M14 285v86h135c37 0 65 12 65 50c0 39 -28 50 -65 50h-88v54l133 98v2h-173v80h193c63 0 90 -31 90 -62c0 -56 -59 -75 -96 -108c67 -11 118 -56 118 -121c0 -95 -74 -129 -165 -129h-147z" />
    <glyph glyph-name="copyright" unicode="&#xa9;" horiz-adv-x="800" 
d="M400 712c195 0 374 -135 374 -362s-179 -362 -374 -362s-374 135 -374 362s179 362 374 362zM400 626c-146 0 -262 -112 -262 -276s116 -276 262 -276s262 112 262 276s-116 276 -262 276zM500 295h86c-12 -99 -87 -153 -174 -153c-120 0 -200 92 -200 211
s80 211 200 211c87 0 162 -54 174 -153h-86c-3 46 -38 67 -88 67c-58 0 -98 -55 -98 -125s40 -125 98 -125c50 0 85 21 88 67z" />
    <glyph glyph-name="Aacute" unicode="&#xc1;" horiz-adv-x="611" 
d="M210 0h-156v456c0 122 69 256 251 256s252 -134 252 -256v-456h-156v252h-152v136h152v94c0 52 -24 94 -96 94s-95 -42 -95 -94v-482zM316 886h154l-148 -144h-99z" />
    <glyph glyph-name="Acircumflex" unicode="&#xc2;" horiz-adv-x="611" 
d="M210 0h-156v456c0 122 69 256 251 256s252 -134 252 -256v-456h-156v252h-152v136h152v94c0 52 -24 94 -96 94s-95 -42 -95 -94v-482zM483 742h-113l-63 82l-64 -82h-114l115 144h125z" />
    <glyph glyph-name="Adieresis" unicode="&#xc4;" horiz-adv-x="611" 
d="M210 0h-156v456c0 122 69 256 251 256s252 -134 252 -256v-456h-156v252h-152v136h152v94c0 52 -24 94 -96 94s-95 -42 -95 -94v-482zM404 878c40 0 70 -31 70 -70s-30 -70 -70 -70s-70 31 -70 70s30 70 70 70zM208 878c40 0 70 -31 70 -70s-30 -70 -70 -70
s-70 31 -70 70s30 70 70 70z" />
    <glyph glyph-name="Agrave" unicode="&#xc0;" horiz-adv-x="611" 
d="M210 0h-156v456c0 122 69 256 251 256s252 -134 252 -256v-456h-156v252h-152v136h152v94c0 52 -24 94 -96 94s-95 -42 -95 -94v-482zM142 886h154l93 -144h-99z" />
    <glyph glyph-name="Aring" unicode="&#xc5;" horiz-adv-x="611" 
d="M210 0h-156v456c0 122 69 256 251 256s252 -134 252 -256v-456h-156v252h-152v136h152v94c0 52 -24 94 -96 94s-95 -42 -95 -94v-482zM306 952c58 0 106 -48 106 -106s-48 -106 -106 -106s-106 48 -106 106s48 106 106 106zM306 898c-28 0 -52 -23 -52 -52s24 -52 52 -52
s52 23 52 52s-24 52 -52 52z" />
    <glyph glyph-name="Atilde" unicode="&#xc3;" horiz-adv-x="611" 
d="M210 0h-156v456c0 122 69 256 251 256s252 -134 252 -256v-456h-156v252h-152v136h152v94c0 52 -24 94 -96 94s-95 -42 -95 -94v-482zM424 876h65c-11 -61 -42 -122 -111 -122c-47 0 -107 36 -147 36c-25 0 -39 -18 -44 -42h-64c9 63 46 124 115 124
c53 0 107 -38 139 -38c25 0 43 19 47 42z" />
    <glyph glyph-name="Ccedilla" unicode="&#xc7;" horiz-adv-x="500" 
d="M476 700v-140h-108c-102 0 -182 -111 -182 -210s80 -210 182 -210h108v-140h-116h-8l-36 -53c11 3 22 5 41 5c34 0 81 -25 81 -77c0 -67 -68 -95 -126 -95c-37 0 -75 12 -108 27l18 41c24 -7 50 -18 75 -18c28 0 55 13 55 44c0 20 -22 34 -40 34c-16 0 -30 -4 -45 -9
l-21 20l57 86c-146 27 -273 157 -273 345c0 212 162 350 330 350h116z" />
    <glyph glyph-name="Eacute" unicode="&#xc9;" horiz-adv-x="500" 
d="M449 700v-140h-90c-113 0 -167 -78 -179 -145h269v-130h-269c12 -67 66 -145 179 -145h90v-140h-77c-240 0 -344 178 -344 350s104 350 344 350h77zM306 886h154l-148 -144h-99z" />
    <glyph glyph-name="Ecircumflex" unicode="&#xca;" horiz-adv-x="500" 
d="M449 700v-140h-90c-113 0 -167 -78 -179 -145h269v-130h-269c12 -67 66 -145 179 -145h90v-140h-77c-240 0 -344 178 -344 350s104 350 344 350h77zM473 742h-113l-63 82l-64 -82h-114l115 144h125z" />
    <glyph glyph-name="Edieresis" unicode="&#xcb;" horiz-adv-x="500" 
d="M449 700v-140h-90c-113 0 -167 -78 -179 -145h269v-130h-269c12 -67 66 -145 179 -145h90v-140h-77c-240 0 -344 178 -344 350s104 350 344 350h77zM394 878c40 0 70 -31 70 -70s-30 -70 -70 -70s-70 31 -70 70s30 70 70 70zM198 878c40 0 70 -31 70 -70s-30 -70 -70 -70
s-70 31 -70 70s30 70 70 70z" />
    <glyph glyph-name="Egrave" unicode="&#xc8;" horiz-adv-x="500" 
d="M449 700v-140h-90c-113 0 -167 -78 -179 -145h269v-130h-269c12 -67 66 -145 179 -145h90v-140h-77c-240 0 -344 178 -344 350s104 350 344 350h77zM132 886h154l93 -144h-99z" />
    <glyph glyph-name="Iacute" unicode="&#xcd;" horiz-adv-x="278" 
d="M213 0h-148v700h148v-700zM149 886h154l-148 -144h-99z" />
    <glyph glyph-name="Icircumflex" unicode="&#xce;" horiz-adv-x="278" 
d="M213 0h-148v700h148v-700zM316 742h-113l-63 82l-64 -82h-114l115 144h125z" />
    <glyph glyph-name="Idieresis" unicode="&#xcf;" horiz-adv-x="278" 
d="M213 0h-148v700h148v-700zM237 878c40 0 70 -31 70 -70s-30 -70 -70 -70s-70 31 -70 70s30 70 70 70zM41 878c40 0 70 -31 70 -70s-30 -70 -70 -70s-70 31 -70 70s30 70 70 70z" />
    <glyph glyph-name="Igrave" unicode="&#xcc;" horiz-adv-x="278" 
d="M213 0h-148v700h148v-700zM-25 886h154l93 -144h-99z" />
    <glyph glyph-name="Ntilde" unicode="&#xd1;" horiz-adv-x="667" 
d="M205 0h-148v610c0 59 39 102 102 102c71 0 104 -54 127 -102l172 -359h1h2v449h148v-611c0 -54 -20 -101 -83 -101c-62 0 -88 38 -121 105l-198 409l-2 -2v-500zM458 876h65c-11 -61 -42 -122 -111 -122c-47 0 -107 36 -147 36c-25 0 -39 -18 -44 -42h-64
c9 63 46 124 115 124c53 0 107 -38 139 -38c25 0 43 19 47 42z" />
    <glyph glyph-name="Oacute" unicode="&#xd3;" horiz-adv-x="778" 
d="M389 712c209 0 357 -165 357 -362s-148 -362 -357 -362s-357 165 -357 362s148 362 357 362zM389 568c-131 0 -209 -101 -209 -218s78 -218 209 -218s209 101 209 218s-78 218 -209 218zM399 886h154l-148 -144h-99z" />
    <glyph glyph-name="Ocircumflex" unicode="&#xd4;" horiz-adv-x="778" 
d="M389 712c209 0 357 -165 357 -362s-148 -362 -357 -362s-357 165 -357 362s148 362 357 362zM389 568c-131 0 -209 -101 -209 -218s78 -218 209 -218s209 101 209 218s-78 218 -209 218zM566 742h-113l-63 82l-64 -82h-114l115 144h125z" />
    <glyph glyph-name="Odieresis" unicode="&#xd6;" horiz-adv-x="778" 
d="M389 712c209 0 357 -165 357 -362s-148 -362 -357 -362s-357 165 -357 362s148 362 357 362zM389 568c-131 0 -209 -101 -209 -218s78 -218 209 -218s209 101 209 218s-78 218 -209 218zM487 878c40 0 70 -31 70 -70s-30 -70 -70 -70s-70 31 -70 70s30 70 70 70zM291 878
c40 0 70 -31 70 -70s-30 -70 -70 -70s-70 31 -70 70s30 70 70 70z" />
    <glyph glyph-name="Ograve" unicode="&#xd2;" horiz-adv-x="778" 
d="M389 712c209 0 357 -165 357 -362s-148 -362 -357 -362s-357 165 -357 362s148 362 357 362zM389 568c-131 0 -209 -101 -209 -218s78 -218 209 -218s209 101 209 218s-78 218 -209 218zM225 886h154l93 -144h-99z" />
    <glyph glyph-name="Otilde" unicode="&#xd5;" horiz-adv-x="778" 
d="M389 712c209 0 357 -165 357 -362s-148 -362 -357 -362s-357 165 -357 362s148 362 357 362zM389 568c-131 0 -209 -101 -209 -218s78 -218 209 -218s209 101 209 218s-78 218 -209 218zM507 876h65c-11 -61 -42 -122 -111 -122c-47 0 -107 36 -147 36
c-25 0 -39 -18 -44 -42h-64c9 63 46 124 115 124c53 0 107 -38 139 -38c25 0 43 19 47 42z" />
    <glyph glyph-name="Scaron" unicode="&#x160;" horiz-adv-x="500" 
d="M441 700v-130h-200c-36 0 -52 -24 -52 -53c0 -63 278 -159 278 -305c0 -98 -44 -212 -198 -212h-234v140h230c26 0 46 20 46 50c0 74 -278 148 -278 324c0 130 95 186 174 186h234zM79 886h113l63 -82l64 82h114l-115 -144h-125z" />
    <glyph glyph-name="Uacute" unicode="&#xda;" horiz-adv-x="611" 
d="M402 700h148l1 -494c0 -109 -78 -218 -245 -218s-245 109 -245 218v494h148v-452c0 -94 44 -116 97 -116c52 0 96 22 96 116v452zM316 886h154l-148 -144h-99z" />
    <glyph glyph-name="Ucircumflex" unicode="&#xdb;" horiz-adv-x="611" 
d="M402 700h148l1 -494c0 -109 -78 -218 -245 -218s-245 109 -245 218v494h148v-452c0 -94 44 -116 97 -116c52 0 96 22 96 116v452zM483 742h-113l-63 82l-64 -82h-114l115 144h125z" />
    <glyph glyph-name="Udieresis" unicode="&#xdc;" horiz-adv-x="611" 
d="M402 700h148l1 -494c0 -109 -78 -218 -245 -218s-245 109 -245 218v494h148v-452c0 -94 44 -116 97 -116c52 0 96 22 96 116v452zM404 878c40 0 70 -31 70 -70s-30 -70 -70 -70s-70 31 -70 70s30 70 70 70zM208 878c40 0 70 -31 70 -70s-30 -70 -70 -70s-70 31 -70 70
s30 70 70 70z" />
    <glyph glyph-name="Ugrave" unicode="&#xd9;" horiz-adv-x="611" 
d="M402 700h148l1 -494c0 -109 -78 -218 -245 -218s-245 109 -245 218v494h148v-452c0 -94 44 -116 97 -116c52 0 96 22 96 116v452zM142 886h154l93 -144h-99z" />
    <glyph glyph-name="Yacute" unicode="&#xdd;" 
d="M50 700h148v-206c0 -66 20 -104 80 -104s80 38 80 104v206h148v-256c0 -70 -36 -152 -154 -188v-256h-148v256c-59 18 -97 48 -121 81c-24 34 -33 72 -33 107v256zM294 886h154l-148 -144h-99z" />
    <glyph glyph-name="Ydieresis" unicode="&#x178;" 
d="M50 700h148v-206c0 -66 20 -104 80 -104s80 38 80 104v206h148v-256c0 -70 -36 -152 -154 -188v-256h-148v256c-59 18 -97 48 -121 81c-24 34 -33 72 -33 107v256zM382 878c40 0 70 -31 70 -70s-30 -70 -70 -70s-70 31 -70 70s30 70 70 70zM186 878c40 0 70 -31 70 -70
s-30 -70 -70 -70s-70 31 -70 70s30 70 70 70z" />
    <glyph glyph-name="Zcaron" unicode="&#x17d;" horiz-adv-x="500" 
d="M479 140v-140h-387c-46 0 -79 40 -79 72c0 36 6 63 23 91l245 397h-235v140h336c46 0 83 -40 83 -87c0 -29 -11 -51 -34 -89l-234 -384h282zM79 886h113l63 -82l64 82h114l-115 -144h-125z" />
    <glyph glyph-name="aacute" unicode="&#xe1;" 
d="M510 0h-128v274c0 58 -44 96 -114 96c-61 0 -108 -56 -108 -127c0 -65 47 -117 112 -117c28 0 49 6 73 15v-133c-29 -7 -55 -12 -81 -12c-150 0 -232 115 -232 242c0 156 104 260 238 260c146 0 240 -92 240 -218v-280zM294 700h154l-148 -144h-99z" />
    <glyph glyph-name="acircumflex" unicode="&#xe2;" 
d="M510 0h-128v274c0 58 -44 96 -114 96c-61 0 -108 -56 -108 -127c0 -65 47 -117 112 -117c28 0 49 6 73 15v-133c-29 -7 -55 -12 -81 -12c-150 0 -232 115 -232 242c0 156 104 260 238 260c146 0 240 -92 240 -218v-280zM461 556h-113l-63 82l-64 -82h-114l115 144h125z
" />
    <glyph glyph-name="adieresis" unicode="&#xe4;" 
d="M510 0h-128v274c0 58 -44 96 -114 96c-61 0 -108 -56 -108 -127c0 -65 47 -117 112 -117c28 0 49 6 73 15v-133c-29 -7 -55 -12 -81 -12c-150 0 -232 115 -232 242c0 156 104 260 238 260c146 0 240 -92 240 -218v-280zM382 692c40 0 70 -31 70 -70s-30 -70 -70 -70
s-70 31 -70 70s30 70 70 70zM186 692c40 0 70 -31 70 -70s-30 -70 -70 -70s-70 31 -70 70s30 70 70 70z" />
    <glyph glyph-name="agrave" unicode="&#xe0;" 
d="M510 0h-128v274c0 58 -44 96 -114 96c-61 0 -108 -56 -108 -127c0 -65 47 -117 112 -117c28 0 49 6 73 15v-133c-29 -7 -55 -12 -81 -12c-150 0 -232 115 -232 242c0 156 104 260 238 260c146 0 240 -92 240 -218v-280zM120 700h154l93 -144h-99z" />
    <glyph glyph-name="aring" unicode="&#xe5;" 
d="M510 0h-128v274c0 58 -44 96 -114 96c-61 0 -108 -56 -108 -127c0 -65 47 -117 112 -117c28 0 49 6 73 15v-133c-29 -7 -55 -12 -81 -12c-150 0 -232 115 -232 242c0 156 104 260 238 260c146 0 240 -92 240 -218v-280zM284 766c58 0 106 -48 106 -106
s-48 -106 -106 -106s-106 48 -106 106s48 106 106 106zM284 712c-28 0 -52 -23 -52 -52s24 -52 52 -52s52 23 52 52s-24 52 -52 52z" />
    <glyph glyph-name="atilde" unicode="&#xe3;" 
d="M510 0h-128v274c0 58 -44 96 -114 96c-61 0 -108 -56 -108 -127c0 -65 47 -117 112 -117c28 0 49 6 73 15v-133c-29 -7 -55 -12 -81 -12c-150 0 -232 115 -232 242c0 156 104 260 238 260c146 0 240 -92 240 -218v-280zM402 690h65c-11 -61 -42 -122 -111 -122
c-47 0 -107 36 -147 36c-25 0 -39 -18 -44 -42h-64c9 63 46 124 115 124c53 0 107 -38 139 -38c25 0 43 19 47 42z" />
    <glyph glyph-name="ccedilla" unicode="&#xe7;" horiz-adv-x="389" 
d="M359 486v-128h-85c-71 0 -116 -48 -116 -115s45 -115 116 -115h85v-128h-90h-12l-36 -53c11 3 22 5 41 5c34 0 81 -25 81 -77c0 -67 -68 -95 -126 -95c-37 0 -75 12 -108 27l18 41c24 -7 50 -18 75 -18c28 0 55 13 55 44c0 20 -22 34 -40 34c-16 0 -30 -4 -45 -9l-21 20
l57 87c-112 23 -178 110 -178 237c0 149 90 243 240 243h89z" />
    <glyph glyph-name="eacute" unicode="&#xe9;" 
d="M403 220l129 -14c-24 -131 -125 -218 -262 -218c-151 0 -246 116 -246 255s95 255 246 255c130 0 204 -70 236 -144l-247 -185l-62 81l127 98c-13 15 -36 22 -63 22c-63 0 -109 -57 -109 -127c0 -60 47 -127 123 -127c64 0 117 39 128 104zM282 700h154l-148 -144h-99z
" />
    <glyph glyph-name="ecircumflex" unicode="&#xea;" 
d="M403 220l129 -14c-24 -131 -125 -218 -262 -218c-151 0 -246 116 -246 255s95 255 246 255c130 0 204 -70 236 -144l-247 -185l-62 81l127 98c-13 15 -36 22 -63 22c-63 0 -109 -57 -109 -127c0 -60 47 -127 123 -127c64 0 117 39 128 104zM449 556h-113l-63 82l-64 -82
h-114l115 144h125z" />
    <glyph glyph-name="edieresis" unicode="&#xeb;" 
d="M403 220l129 -14c-24 -131 -125 -218 -262 -218c-151 0 -246 116 -246 255s95 255 246 255c130 0 204 -70 236 -144l-247 -185l-62 81l127 98c-13 15 -36 22 -63 22c-63 0 -109 -57 -109 -127c0 -60 47 -127 123 -127c64 0 117 39 128 104zM370 692c40 0 70 -31 70 -70
s-30 -70 -70 -70s-70 31 -70 70s30 70 70 70zM174 692c40 0 70 -31 70 -70s-30 -70 -70 -70s-70 31 -70 70s30 70 70 70z" />
    <glyph glyph-name="egrave" unicode="&#xe8;" 
d="M403 220l129 -14c-24 -131 -125 -218 -262 -218c-151 0 -246 116 -246 255s95 255 246 255c130 0 204 -70 236 -144l-247 -185l-62 81l127 98c-13 15 -36 22 -63 22c-63 0 -109 -57 -109 -127c0 -60 47 -127 123 -127c64 0 117 39 128 104zM108 700h154l93 -144h-99z" />
    <glyph glyph-name="iacute" unicode="&#xed;" horiz-adv-x="222" 
d="M175 0h-128v486h128v-486zM121 700h154l-148 -144h-99z" />
    <glyph glyph-name="icircumflex" unicode="&#xee;" horiz-adv-x="222" 
d="M175 0h-128v486h128v-486zM288 556h-113l-63 82l-64 -82h-114l115 144h125z" />
    <glyph glyph-name="idieresis" unicode="&#xef;" horiz-adv-x="222" 
d="M175 0h-128v486h128v-486zM209 692c40 0 70 -31 70 -70s-30 -70 -70 -70s-70 31 -70 70s30 70 70 70zM13 692c40 0 70 -31 70 -70s-30 -70 -70 -70s-70 31 -70 70s30 70 70 70z" />
    <glyph glyph-name="igrave" unicode="&#xec;" horiz-adv-x="222" 
d="M175 0h-128v486h128v-486zM-53 700h154l93 -144h-99z" />
    <glyph glyph-name="ntilde" unicode="&#xf1;" horiz-adv-x="500" 
d="M177 0h-128v336c0 106 82 162 201 162s201 -56 201 -162v-336h-128v292c0 50 -26 78 -73 78s-73 -28 -73 -78v-292zM368 690h65c-11 -61 -42 -122 -111 -122c-47 0 -107 36 -147 36c-25 0 -39 -18 -44 -42h-64c9 63 46 124 115 124c53 0 107 -38 139 -38
c25 0 43 19 47 42z" />
    <glyph glyph-name="oacute" unicode="&#xf3;" 
d="M278 370c-71 0 -118 -46 -118 -127s47 -127 118 -127s118 46 118 127s-47 127 -118 127zM278 498c151 0 246 -116 246 -255s-95 -255 -246 -255s-246 116 -246 255s95 255 246 255zM288 700h154l-148 -144h-99z" />
    <glyph glyph-name="ocircumflex" unicode="&#xf4;" 
d="M278 370c-71 0 -118 -46 -118 -127s47 -127 118 -127s118 46 118 127s-47 127 -118 127zM278 498c151 0 246 -116 246 -255s-95 -255 -246 -255s-246 116 -246 255s95 255 246 255zM455 556h-113l-63 82l-64 -82h-114l115 144h125z" />
    <glyph glyph-name="odieresis" unicode="&#xf6;" 
d="M278 370c-71 0 -118 -46 -118 -127s47 -127 118 -127s118 46 118 127s-47 127 -118 127zM278 498c151 0 246 -116 246 -255s-95 -255 -246 -255s-246 116 -246 255s95 255 246 255zM376 692c40 0 70 -31 70 -70s-30 -70 -70 -70s-70 31 -70 70s30 70 70 70zM180 692
c40 0 70 -31 70 -70s-30 -70 -70 -70s-70 31 -70 70s30 70 70 70z" />
    <glyph glyph-name="ograve" unicode="&#xf2;" 
d="M278 370c-71 0 -118 -46 -118 -127s47 -127 118 -127s118 46 118 127s-47 127 -118 127zM278 498c151 0 246 -116 246 -255s-95 -255 -246 -255s-246 116 -246 255s95 255 246 255zM114 700h154l93 -144h-99z" />
    <glyph glyph-name="otilde" unicode="&#xf5;" 
d="M278 370c-71 0 -118 -46 -118 -127s47 -127 118 -127s118 46 118 127s-47 127 -118 127zM278 498c151 0 246 -116 246 -255s-95 -255 -246 -255s-246 116 -246 255s95 255 246 255zM396 690h65c-11 -61 -42 -122 -111 -122c-47 0 -107 36 -147 36c-25 0 -39 -18 -44 -42
h-64c9 63 46 124 115 124c53 0 107 -38 139 -38c25 0 43 19 47 42z" />
    <glyph glyph-name="scaron" unicode="&#x161;" horiz-adv-x="389" 
d="M23 0v120h165c24 0 36 12 36 27c0 61 -196 75 -196 196c0 105 74 143 158 143h154v-120h-148c-16 0 -32 -2 -32 -22c0 -44 206 -68 206 -196c0 -97 -72 -148 -164 -148h-179zM18 700h113l63 -82l64 82h114l-115 -144h-125z" />
    <glyph glyph-name="uacute" unicode="&#xfa;" horiz-adv-x="500" 
d="M49 486h128v-292c0 -50 26 -78 73 -78s73 28 73 78v292h128v-336c0 -106 -82 -162 -201 -162s-201 56 -201 162v336zM260 700h154l-148 -144h-99z" />
    <glyph glyph-name="ucircumflex" unicode="&#xfb;" horiz-adv-x="500" 
d="M49 486h128v-292c0 -50 26 -78 73 -78s73 28 73 78v292h128v-336c0 -106 -82 -162 -201 -162s-201 56 -201 162v336zM427 556h-113l-63 82l-64 -82h-114l115 144h125z" />
    <glyph glyph-name="udieresis" unicode="&#xfc;" horiz-adv-x="500" 
d="M49 486h128v-292c0 -50 26 -78 73 -78s73 28 73 78v292h128v-336c0 -106 -82 -162 -201 -162s-201 56 -201 162v336zM348 692c40 0 70 -31 70 -70s-30 -70 -70 -70s-70 31 -70 70s30 70 70 70zM152 692c40 0 70 -31 70 -70s-30 -70 -70 -70s-70 31 -70 70s30 70 70 70z
" />
    <glyph glyph-name="ugrave" unicode="&#xf9;" horiz-adv-x="500" 
d="M49 486h128v-292c0 -50 26 -78 73 -78s73 28 73 78v292h128v-336c0 -106 -82 -162 -201 -162s-201 56 -201 162v336zM86 700h154l93 -144h-99z" />
    <glyph glyph-name="yacute" unicode="&#xfd;" horiz-adv-x="500" 
d="M47 486h128v-284c0 -54 20 -86 75 -86s75 32 75 86v284h128v-310c0 -90 -44 -160 -136 -180v-202h-134v202c-46 10 -80 33 -102 64c-23 31 -34 71 -34 116v310zM260 700h154l-148 -144h-99z" />
    <glyph glyph-name="ydieresis" unicode="&#xff;" horiz-adv-x="500" 
d="M47 486h128v-284c0 -54 20 -86 75 -86s75 32 75 86v284h128v-310c0 -90 -44 -160 -136 -180v-202h-134v202c-46 10 -80 33 -102 64c-23 31 -34 71 -34 116v310zM348 692c40 0 70 -31 70 -70s-30 -70 -70 -70s-70 31 -70 70s30 70 70 70zM152 692c40 0 70 -31 70 -70
s-30 -70 -70 -70s-70 31 -70 70s30 70 70 70z" />
    <glyph glyph-name="zcaron" unicode="&#x17e;" horiz-adv-x="444" 
d="M42 362v124h278c66 0 94 -32 94 -66c0 -48 -10 -70 -38 -101l-177 -195h215v-124h-312c-58 0 -90 34 -90 77c0 27 11 49 30 69l200 216h-200zM45 700h113l63 -82l64 82h114l-115 -144h-125z" />
    <glyph glyph-name="Omega" unicode="&#x2126;" horiz-adv-x="700" 
d="M167 111v3c-59 56 -118 150 -118 275c0 172 120 320 303 320c196 0 297 -170 297 -313c0 -126 -59 -225 -119 -282v-3h133v-111h-267v82c59 38 114 126 114 284c0 122 -55 228 -158 228c-99 0 -164 -98 -164 -233c0 -144 54 -243 114 -279v-82h-267v111h132z" />
    <glyph glyph-name="pi" unicode="&#x3c0;" horiz-adv-x="605" 
d="M582 408h-68v-260c0 -71 5 -116 13 -148h-133c-13 22 -18 75 -18 143v265h-128c-4 -103 -27 -302 -62 -408h-133c33 119 59 304 60 408c-45 0 -73 -3 -95 -9l-15 92c26 20 80 34 168 34h421z" />
    <glyph glyph-name="Euro" unicode="&#x20ac;" 
d="M455 230h-178c32 -55 87 -90 151 -90h108v-140h-116c-134 0 -264 87 -311 230h-88v96h70c0 8 -1 16 -1 24c0 9 0 19 1 28h-70v96h89c49 140 178 226 310 226h116v-140h-108c-62 0 -116 -33 -149 -86h176v-96h-208c-1 -9 -1 -18 -1 -28c0 -8 0 -16 1 -24h208v-96z" />
    <glyph glyph-name="estimated" unicode="&#x212e;" horiz-adv-x="873" 
d="M838 340h-651c-3 0 -5 -1 -5 -4v-197c0 -9 3 -17 8 -23c63 -65 150 -107 246 -107c104 0 196 47 260 120h57c-71 -85 -188 -140 -318 -140c-221 0 -401 161 -401 360c0 201 180 363 401 363c223 0 403 -162 403 -363v-9zM690 366v198c0 8 -3 17 -9 23
c-64 62 -149 103 -245 103c-95 0 -182 -42 -245 -106c-6 -6 -9 -15 -9 -25v-193c0 -3 2 -7 5 -7h499c3 0 4 4 4 7z" />
    <glyph glyph-name="partialdiff" unicode="&#x2202;" horiz-adv-x="577" 
d="M103 628l-38 103c31 23 91 58 186 58c149 0 279 -129 279 -381s-106 -415 -284 -415c-142 0 -210 131 -210 237c0 162 96 264 216 264c79 0 128 -52 142 -76h1c1 7 1 23 1 31c0 115 -62 227 -163 227c-61 0 -104 -27 -130 -48zM260 107h1c70 0 113 109 122 198
c-8 29 -45 78 -103 78c-65 0 -108 -76 -108 -158c0 -65 34 -118 88 -118z" />
    <glyph glyph-name="product" unicode="&#x220f;" horiz-adv-x="722" 
d="M697 573h-99v-669h-136v669h-203v-669h-135v669h-100v125h673v-125z" />
    <glyph glyph-name="summation" unicode="&#x2211;" 
d="M538 -96h-515v87l234 310l-226 301v96h490v-117h-307v-3l197 -254l-220 -290v-3h347v-127z" />
    <glyph glyph-name="uni2219" unicode="&#x2219;" horiz-adv-x="278" 
d="M139 326c49 0 83 -37 83 -83s-34 -83 -83 -83s-83 37 -83 83s34 83 83 83z" />
    <glyph glyph-name="radical" unicode="&#x221a;" horiz-adv-x="594" 
d="M604 839l-224 -977h-108l-145 432l-74 -29l-22 76l177 71l98 -306c7 -33 15 -66 20 -89l2 -1c3 22 9 60 16 97l166 726h94z" />
    <glyph glyph-name="infinity" unicode="&#x221e;" horiz-adv-x="775" 
d="M728 288v-1c0 -110 -80 -175 -162 -175c-56 0 -111 23 -177 112c-51 -64 -103 -112 -184 -112c-82 0 -158 68 -158 170c0 103 72 174 167 174c74 0 127 -42 178 -109c40 45 90 109 180 109c87 -1 156 -67 156 -168zM215 186h1c54 0 95 47 132 93c-40 55 -73 105 -136 105
c-56 0 -90 -43 -90 -103c0 -52 40 -95 93 -95zM564 384h-1c-59 0 -102 -62 -133 -98c59 -75 89 -100 138 -100c54 0 84 53 84 96c0 58 -35 102 -88 102z" />
    <glyph glyph-name="integral" unicode="&#x222b;" horiz-adv-x="403" 
d="M379 853l-14 -93c-9 4 -21 8 -35 8c-19 0 -37 -8 -49 -26c-21 -27 -26 -84 -26 -166c0 -164 15 -292 15 -475c0 -92 -14 -159 -35 -199c-28 -56 -83 -77 -134 -77c-33 0 -64 8 -79 16l16 98c10 -4 24 -11 43 -11c15 0 32 5 43 20c17 23 25 65 25 152
c0 185 -15 316 -15 489c0 118 18 182 61 229c29 32 77 47 121 47c26 0 51 -6 63 -12z" />
    <glyph glyph-name="approxequal" unicode="&#x2248;" horiz-adv-x="544" 
d="M459 455l47 -44c-32 -62 -80 -104 -136 -104c-40 0 -66 12 -110 39c-29 18 -52 33 -84 33c-44 0 -68 -36 -92 -71l-48 44c29 58 84 104 146 104c48 0 79 -22 104 -36c35 -22 55 -36 84 -36c38 0 62 29 89 71zM459 266l47 -44c-31 -61 -79 -104 -137 -104
c-39 0 -66 13 -109 39c-30 19 -53 34 -84 34c-44 0 -67 -36 -92 -72l-48 44c29 58 84 104 146 104c48 0 79 -21 103 -35c31 -18 54 -37 85 -37c39 0 61 29 89 71z" />
    <glyph glyph-name="notequal" unicode="&#x2260;" horiz-adv-x="544" 
d="M403 513l-37 -85h131v-79h-160l-58 -132h218v-78h-247l-49 -113l-61 25l38 88h-131v78h161l57 132h-218v79h247l48 110z" />
    <glyph glyph-name="lessequal" unicode="&#x2264;" horiz-adv-x="544" 
d="M494 100l-442 222v85l442 221v-91l-365 -171v-3l365 -172v-91zM498 -16h-450v79h450v-79z" />
    <glyph glyph-name="greaterequal" unicode="&#x2265;" horiz-adv-x="544" 
d="M54 628l442 -222v-84l-442 -222v91l365 172v3l-365 171v91zM496 -16h-447v79h447v-79z" />
    <glyph glyph-name="lozenge" unicode="&#x25ca;" horiz-adv-x="593" 
d="M545 348l-197 -398h-109l-190 398l196 399h109zM425 345l-107 229c-7 19 -15 44 -18 62h-4c-5 -19 -11 -42 -19 -62l-108 -223l108 -233c7 -20 14 -45 17 -58h4c4 14 13 45 17 56z" />
    <glyph glyph-name="uni02C9" unicode="&#x2c9;" horiz-adv-x="222" 
d="M285 587h-347v74h347v-74z" />
    <glyph glyph-name="uni00AD" unicode="&#xad;" horiz-adv-x="333" 
d="M282 187h-231v112h231v-112z" />
    <glyph glyph-name="uni03A9" unicode="&#x3a9;" horiz-adv-x="700" 
d="M167 111v3c-59 56 -118 150 -118 275c0 172 120 320 303 320c196 0 297 -170 297 -313c0 -126 -59 -225 -119 -282v-3h133v-111h-267v82c59 38 114 126 114 284c0 122 -55 228 -158 228c-99 0 -164 -98 -164 -233c0 -144 54 -243 114 -279v-82h-267v111h132z" />
    <glyph glyph-name="uni00A0" unicode="&#xa0;" horiz-adv-x="278" 
 />
    <glyph glyph-name="afii61289" unicode="&#x2113;" horiz-adv-x="517" 
d="M445 191l55 -58c-54 -106 -133 -142 -211 -142c-121 0 -172 74 -183 160v11c-16 -12 -34 -27 -51 -39l-33 72c29 25 57 45 82 69v247c0 176 82 257 183 257c99 0 143 -81 143 -181c0 -116 -74 -226 -193 -342v-44c2 -65 37 -100 84 -100c52 0 96 45 124 90zM237 512v-142
c64 75 108 158 108 223c0 48 -13 77 -50 77c-28 0 -58 -34 -58 -158z" />
    <glyph glyph-name="uni03BC" unicode="&#x3bc;" horiz-adv-x="500" 
d="M177 -216h-128v702h128v-292c0 -50 26 -78 73 -78s73 28 73 78v292h128v-336c0 -106 -82 -162 -201 -162c-27 0 -52 3 -73 9v-213z" />
    <glyph glyph-name="uni2215" unicode="&#x2215;" horiz-adv-x="167" 
d="M-167 -12l406 724h95l-410 -724h-91z" />
    <glyph glyph-name="a.superior" horiz-adv-x="334" 
d="M324 413h-92v161c0 38 -24 60 -68 60c-43 0 -68 -33 -68 -71c0 -43 25 -72 68 -72c18 0 31 3 44 9v-82c-16 -4 -33 -7 -50 -7c-97 0 -154 69 -154 145c0 93 71 156 158 156c96 0 162 -55 162 -131v-168z" />
    <glyph glyph-name="o.superior" horiz-adv-x="334" 
d="M167 712c98 0 160 -70 160 -153c0 -84 -62 -153 -160 -153s-160 69 -160 153c0 83 62 153 160 153zM167 630c-40 0 -72 -31 -72 -71s32 -71 72 -71s72 31 72 71s-32 71 -72 71z" />
    <glyph glyph-name="one.superior" horiz-adv-x="333" 
d="M58 621v84h168v-420h-102v336h-66z" />
    <glyph glyph-name="two.superior" horiz-adv-x="333" 
d="M326 285h-253c-38 0 -70 12 -70 50c0 29 9 39 64 90l94 86c30 28 53 51 53 76c0 18 -20 41 -51 41s-50 -21 -50 -43c0 -27 16 -50 30 -54l-70 -61c-40 22 -62 68 -62 113c0 74 66 129 154 129c85 0 151 -55 151 -129c0 -58 -27 -87 -71 -125l-105 -89h186v-84z" />
    <glyph glyph-name="three.superior" horiz-adv-x="333" 
d="M14 285v86h135c37 0 65 12 65 50c0 39 -28 50 -65 50h-88v54l133 98v2h-173v80h193c63 0 90 -31 90 -62c0 -56 -59 -75 -96 -108c67 -11 118 -56 118 -121c0 -95 -74 -129 -165 -129h-147z" />
    <glyph glyph-name="uni2206" unicode="&#x2206;" horiz-adv-x="654" 
d="M25 0v79l224 633h163l216 -631v-81h-603zM167 111h314l-101 274c-14 54 -43 136 -53 178h-4c-8 -35 -34 -107 -49 -163z" />
    <glyph glyph-name="uni2010" unicode="&#x2010;" horiz-adv-x="333" 
d="M282 187h-231v112h231v-112z" />
    </font>
</defs>
</svg>
